<?xml version="1.0" standalone="no"?>
<!DOCTYPE svg PUBLIC "-//W3C//DTD SVG 20010904//EN"
 "http://www.w3.org/TR/2001/REC-SVG-20010904/DTD/svg10.dtd">
<svg version="1.0" xmlns="http://www.w3.org/2000/svg"
 width="512.000000pt" height="512.000000pt" viewBox="0 0 512.000000 512.000000"
 preserveAspectRatio="xMidYMid meet">
<metadata>
Created by potrace 1.11, written by Peter Selinger 2001-2013
</metadata>
<g transform="translate(0.000000,512.000000) scale(0.100000,-0.100000)"
fill="#000000" stroke="none">
<path d="M1310 4901 c0 -3 -19 -6 -43 -7 -88 -1 -196 -20 -322 -58 -65 -20
-221 -90 -285 -130 -297 -183 -508 -458 -603 -787 -14 -46 -28 -100 -30 -119
-3 -19 -10 -57 -14 -85 -11 -66 -10 -275 1 -345 4 -30 9 -64 11 -76 4 -30 44
-176 54 -199 5 -11 24 -63 41 -115 18 -52 39 -107 46 -121 7 -15 10 -29 7 -33
-4 -3 -1 -6 5 -6 7 0 12 -6 12 -13 0 -21 120 -253 196 -378 144 -241 362 -532
579 -775 132 -149 449 -472 596 -609 75 -69 210 -191 252 -228 12 -10 45 -38
72 -62 28 -24 84 -72 125 -108 41 -35 182 -151 313 -256 l239 -191 28 20 c15
11 79 60 141 109 138 109 120 95 200 161 36 30 85 71 109 90 23 19 48 40 54
45 6 6 58 50 116 99 58 50 112 97 121 105 9 9 51 48 95 86 267 238 618 594
809 820 37 44 71 82 74 85 13 10 209 267 252 330 24 36 46 67 49 70 13 12 122
184 177 280 64 110 173 331 173 350 0 5 4 18 9 28 12 24 41 94 46 115 2 4 4 9
5 12 1 3 3 8 5 13 1 4 4 14 8 22 16 43 49 154 65 225 27 117 28 415 3 545 -84
429 -387 802 -792 978 -53 23 -103 42 -112 42 -9 0 -19 5 -22 10 -4 6 -12 10
-18 9 -7 -1 -19 0 -27 3 -28 11 -175 38 -240 44 -376 38 -786 -108 -1060 -378
-47 -46 -96 -96 -109 -112 -39 -48 -132 -187 -142 -213 -8 -22 -29 -24 -29 -3
0 16 -89 150 -138 210 -84 102 -271 270 -301 270 -5 0 -11 4 -13 9 -9 24 -263
143 -358 167 -136 35 -159 39 -260 49 -90 10 -170 12 -170 6z"/>
</g>
</svg>
